PathFileType	4	(X/Y/Z)	2014001\dynamic\2014001_C1_01.trc
DataRate	CameraRate	NumFrames	NumMarkers	Units	OrigDataRate	OrigDataStartFrame	OrigNumFrames
100.000000	100.000000	4	52	mm	100.000000	241	387
Frame#	Time	L_IAS			L_IPS			R_IPS			R_IAS			L_FTC			L_FLE			L_FME			L_FAX			L_TTC			L_FAL			L_TAM			L_FCC			L_FM1			L_FM2			L_FM5			R_FTC			R_FLE			R_FME			R_FAX			R_TTC			R_FAL			R_TAM			R_FCC			R_FM1			R_FM2			R_FM5			CV7			TV10			SXS			SJN			L_SIA			L_SRS			L_SAA			L_SAE			L_HLE			L_HME			L_UOA			L_RSP			L_UHE			L_HM2			L_HM5			R_SIA			R_SRS			R_SAA			R_SAE			R_HLE			R_HME			R_UOA			R_RSP			R_UHE			R_HM2			R_HM5			
		X1	Y1	Z1	X2	Y2	Z2	X3	Y3	Z3	X4	Y4	Z4	X5	Y5	Z5	X6	Y6	Z6	X7	Y7	Z7	X8	Y8	Z8	X9	Y9	Z9	X10	Y10	Z10	X11	Y11	Z11	X12	Y12	Z12	X13	Y13	Z13	X14	Y14	Z14	X15	Y15	Z15	X16	Y16	Z16	X17	Y17	Z17	X18	Y18	Z18	X19	Y19	Z19	X20	Y20	Z20	X21	Y21	Z21	X22	Y22	Z22	X23	Y23	Z23	X24	Y24	Z24	X25	Y25	Z25	X26	Y26	Z26	X27	Y27	Z27	X28	Y28	Z28	X29	Y29	Z29	X30	Y30	Z30	X31	Y31	Z31	X32	Y32	Z32	X33	Y33	Z33	X34	Y34	Z34	X35	Y35	Z35	X36	Y36	Z36	X37	Y37	Z37	X38	Y38	Z38	X39	Y39	Z39	X40	Y40	Z40	X41	Y41	Z41	X42	Y42	Z42	X43	Y43	Z43	X44	Y44	Z44	X45	Y45	Z45	X46	Y46	Z46	X47	Y47	Z47	X48	Y48	Z48	X49	Y49	Z49	X50	Y50	Z50	X51	Y51	Z51	X52	Y52	Z52	

242	2.41	216.9292297363282	883.3224487304692	133.6203002929688	292.8126525878907	906.391967773438	313.4042053222657	379.9219360351564	899.4365844726567	313.0543823242189	460.9902038574221	868.817016601563	136.4290466308594	152.5307769775391	798.617065429688	199.4743652343751	165.9105529785157	459.8968811035159	81.86780548095706	278.3876037597657	453.0815734863284	47.98151779174806	160.4551391601563	395.4028625488284	82.91506958007815	197.8494567871095	397.6289672851565	11.36301040649414	183.2291259765626	82.05952453613284	-3.506943941116335	265.3286132812501	99.82342529296881	-33.49174880981447	234.4039764404298	29.37583541870119	17.14764595031739	228.4105377197267	94.98394012451175	-150.8905181884766	170.5387420654297	102.1059112548829	-143.8015136718751	140.3997497558594	67.85105133056643	-101.8604278564454	504.538513183594	772.7772827148442	235.6050415039064	444.9161376953127	427.561706542969	259.5247192382814	327.2189025878907	423.3196411132815	247.1756439208986	444.629821777344	363.6596069335939	288.067596435547	391.4678649902346	350.600067138672	230.3172454833986	379.6788635253907	69.2732849121094	390.3905334472659	295.7489013671876	85.573356628418	353.660369873047	322.5928955078126	35.47930908203126	438.0921630859377	306.1860961914064	24.2725067138672	252.6790161132814	369.2421264648439	34.50852584838869	243.8196105957032	417.0467529296877	22.92004394531251	304.0667724609376	360.5086975097657	1373.659545898438	300.6827697753907	346.6835327148439	1136.406982421875	356.905487060547	345.6510314941407	1147.827758789063	125.8845825195313	353.9792785644532	1307.81591796875	174.347152709961	256.4973144531251	1179.337646484375	364.0235290527345	268.3410644531251	1311.6865234375	346.9960327148439	159.6152343750001	1313.587646484375	272.7331848144532	173.908920288086	1324.267944335938	232.0572204589845	96.38487243652349	1040.60693359375	274.7368469238282	175.1920776367188	1008.542419433594	296.4942016601564	126.3564682006837	1007.107971191407	305.5579223632814	124.1358261108399	813.0794067382817	167.5897216796876	63.59661102294925	807.799682617188	224.9622192382814	110.2593460083008	735.2274169921877	134.1593627929688	59.92052078247073	729.4830322265627	224.9258880615236	463.0977783203127	1175.052612304688	366.4156188964845	444.7051086425784	1300.3046875	342.4930725097657	547.9495239257815	1293.823852539063	264.4259643554689	536.418151855469	1297.938598632813	214.9282989501954	599.1453247070315	994.9138793945317	263.6039428710939	524.4324951171877	983.1594848632817	299.9120483398439	569.2174072265627	974.1891479492192	297.7105407714845	555.242614746094	785.9237670898442	172.0189971923829	620.6370849609377	782.818481445313	220.9799652099611	568.8123779296877	698.5523681640627	139.1131134033204	619.5640869140627	702.7355957031252	227.5976867675782	
243	2.42	216.6284637451173	882.6240234375005	129.6716461181641	291.9751586914064	905.9508666992192	309.6134033203126	379.0716552734376	899.177856445313	309.4994506835939	460.8527526855471	868.585571289063	133.061508178711	152.167953491211	797.9326171875005	195.4868011474611	166.1437530517579	459.3014221191409	78.16394805908206	278.440887451172	452.8333129882815	43.951473236084	160.7738189697266	394.7107238769534	78.9457931518555	198.0234985351564	397.3257446289065	7.43371152877808	183.7998504638672	81.8010177612305	-8.914985656738285	265.9114990234376	99.78944396972662	-38.92253494262697	235.1483459472657	29.19033813476564	11.45187377929688	228.7173309326173	95.19584655761722	-156.4120788574219	170.827865600586	102.1492538452149	-149.1993560791016	140.855697631836	67.73757171630862	-107.2727813720704	504.1234436035159	772.7185058593755	232.653289794922	444.9089355468752	427.5816040039065	257.8053588867189	327.3104553222657	423.1255187988284	244.9479522705079	444.5956726074221	363.7872314453126	286.6812438964845	391.6541442871096	350.3152770996095	228.8028411865236	379.6822814941407	69.67059326171878	390.3000793457034	295.9008178710939	85.8896408081055	353.2506103515626	322.5501098632814	36.13673019409181	437.9715881347659	306.3227539062501	24.37315940856935	252.6873016357423	369.3448791503907	34.48312377929689	243.7906799316407	417.0885314941409	22.87790870666505	304.0775451660157	359.2133789062501	1373.26318359375	296.9381408691407	345.4812622070314	1136.123046875	353.3018188476564	344.9690246582032	1147.335083007813	122.1812591552735	352.9911499023439	1307.331298828125	170.5933837890626	255.2429656982423	1178.896484375	360.1520996093751	266.9973144531251	1311.23974609375	343.0529174804689	158.4490356445313	1312.960205078125	268.5576782226564	172.7777862548829	1323.638549804688	227.8762969970704	95.49965667724612	1039.945922851563	270.7420654296876	174.2858276367188	1008.012878417969	292.7063903808595	125.4513854980469	1006.546813964844	301.6565856933595	123.5658264160157	812.2202758789067	164.1317138671876	62.98600387573245	807.015502929688	221.4197082519532	109.9299774169922	734.2467041015627	130.9102630615235	59.36903762817386	728.6984863281252	221.5818176269532	461.8598632812502	1174.799438476563	362.9568786621095	443.3747863769534	1300.017578125	338.9771728515626	546.8045043945315	1293.546875	261.1164550781251	535.3651123046877	1297.644653320313	211.6069335937501	598.591247558594	994.702270507813	259.8703918457032	523.9653320312502	982.800170898438	296.4693298339845	568.620788574219	973.758911132813	293.8174438476564	555.171813964844	786.0689086914067	167.1671295166016	620.451599121094	782.7907714843755	216.3648529052736	568.9951171875002	698.8731079101565	133.9382476806641	619.4260253906252	702.671569824219	222.4815368652345	
244	2.43	216.2941741943361	881.9171752929692	125.6631240844727	291.0939941406251	905.5130004882817	305.7549133300782	378.1805114746095	898.917602539063	305.8768920898439	460.654235839844	868.3420410156255	129.6729736328126	151.7727661132813	797.2456665039067	191.4237670898438	166.3577575683594	458.6667175292971	74.5038986206055	278.4761657714845	452.5276794433596	40.04606246948244	161.0560607910157	393.9765625000002	75.0197448730469	198.1996154785157	396.9768676757815	3.576115608215334	184.315414428711	81.51263427734378	-14.30380821228028	266.4605712890626	99.72236633300787	-44.2900848388672	235.8185272216798	28.9706153869629	5.798771858215334	229.051239013672	95.37916564941409	-161.8852844238282	171.1514129638672	102.1638107299805	-154.5943603515626	141.3081512451172	67.59516906738284	-112.6937942504883	503.6780395507815	772.666137695313	229.6596832275392	444.8875122070315	427.6130065917971	256.0456542968751	327.3933715820314	422.9285888671877	242.6723480224611	444.5495605468752	363.9253845214845	285.260467529297	391.8255615234377	350.0354614257814	227.2641906738282	379.6854858398439	70.09114074707034	390.1909484863284	296.0474548339845	86.22454071044925	352.8299255371095	322.5104980468751	36.82585525512697	437.843200683594	306.4667053222657	24.47396659851076	252.6959533691407	369.4520263671876	34.45592498779298	243.7569122314454	417.127380371094	22.83789062500001	304.0849609375001	357.8733215332032	1372.8671875	293.1170349121095	344.213348388672	1135.825439453125	349.6093750000001	344.2417297363282	1146.840942382813	118.4058074951172	351.9580688476564	1306.845581054688	166.7616729736329	253.9381256103517	1178.460205078125	356.2037353515626	265.6038818359376	1310.7978515625	339.028045654297	157.2339935302735	1312.343383789063	264.2945251464845	171.6056213378907	1323.016235351563	223.6089172363282	94.56272125244143	1039.292724609375	266.6936340332032	173.3144531250001	1007.500061035157	288.8961791992189	124.4852523803712	1005.9921875	297.7111206054689	122.9887390136719	811.3925781250005	160.5896911621094	62.36116790771487	806.2377319335942	217.7867126464845	109.6162948608399	733.2971191406252	127.5731430053712	58.81299591064456	727.9191894531252	218.1344299316407	460.5735168457034	1174.547973632813	359.426239013672	441.9986572265627	1299.729614257813	335.3847656250001	545.6163330078127	1293.262451171875	257.7272033691407	534.2650146484377	1297.337768554688	208.2071990966798	597.991882324219	994.4848632812505	256.0527954101564	523.4249267578127	982.4096069335942	292.847137451172	567.9777832031252	973.3228149414067	289.8371582031251	555.0501098632815	786.2302246093755	162.1756134033204	620.2191162109377	782.7579956054692	211.6631317138673	569.134216308594	699.1936645507815	128.675521850586	619.2495117187502	702.6121215820315	217.2771606445314	
245	2.44	215.924774169922	881.2019653320317	121.5894851684571	290.1714477539064	905.0816040039067	301.8243103027345	377.2513732910157	898.657836914063	302.1824951171876	460.3896179199221	868.0776977539067	126.2706680297852	151.3438720703126	796.556518554688	187.2841796875001	166.5527954101563	457.9937438964846	70.88690948486331	278.4961547851564	452.1632080078127	36.27866744995119	161.3006896972657	393.2015686035159	71.13941192626956	198.3775634765626	396.5828857421877	-0.2130853235721589	184.7722930908204	81.19544219970706	-19.685941696167	266.9647827148439	99.62555694580084	-49.60822677612308	236.4107513427736	28.71331596374513	0.1724870651960373	229.4116210937501	95.54663085937503	-167.3200836181641	171.5100402832032	102.162467956543	-159.9991302490235	141.7547454833985	67.43223571777347	-118.1390228271485	503.206726074219	772.6186523437505	226.6213836669923	444.8496398925784	427.6542663574221	254.2472991943361	327.463592529297	422.726257324219	240.3584136962892	444.4909362792971	364.072967529297	283.8053588867189	391.9806213378909	349.7624511718751	225.7032775878907	379.6905517578126	70.53797912597659	390.0583496093752	296.1887817382814	86.57875061035159	352.4024658203126	322.4767456054689	37.54565811157228	437.7080688476565	306.616668701172	24.57568168640138	252.7030334472657	369.5623168945314	34.42699813842775	243.7188720703126	417.1636657714846	22.79957580566407	304.0885314941407	356.4880676269532	1372.470825195313	289.2184448242189	342.8813476562501	1135.509765625	345.8208923339845	343.4666442871095	1146.34814453125	114.553825378418	350.8785705566407	1306.361083984375	162.850570678711	252.5841674804689	1178.025268554688	352.174041748047	264.1613769531251	1310.358642578125	334.9219360351564	155.9689941406251	1311.738403320313	259.9466552734376	170.3917694091797	1322.402954101563	219.2593383789064	93.5749435424805	1038.648193359375	262.5869445800782	172.2812957763672	1007.003540039063	285.0513610839845	123.4605255126954	1005.445007324219	293.7159118652345	122.4037551879883	810.595336914063	156.9586791992188	61.71915817260745	805.4675292968755	214.0634002685548	109.313835144043	732.3773193359377	124.1478500366212	58.24829483032229	727.1465454101565	214.584442138672	459.2374267578127	1174.296020507813	355.8188781738282	440.5750732421877	1299.43896484375	331.7149047851564	544.3829345703127	1292.971557617188	254.2572631835939	533.1165161132815	1297.022094726563	204.7276000976564	597.3441162109377	994.2633666992192	252.1511840820314	522.806335449219	981.9891967773442	289.0390930175782	567.2874145507815	972.8856811523442	285.771942138672	554.871276855469	786.4082641601567	157.0521087646485	619.9356689453127	782.722045898438	206.8798828125001	569.2207641601565	699.5120849609377	123.3366775512696	619.0312500000002	702.557800292969	212.0005340576173	
